<svg xmlns="http://www.w3.org/2000/svg" width="22" height="22" viewBox="12 9 22 22"><desc>  Created with Sketch.</desc><path d="M26.8 10C25.5 10 24.4 10.9 23.7 12.2 24.8 13.5 25.5 15.4 25.5 17.5 25.5 18.2 25.4 18.9 25.3 19.5 25.8 19.8 26.2 20 26.8 20 28.8 20 30.5 17.8 30.5 15 30.5 12.3 28.8 10 26.8 10L26.8 10ZM19.3 12.5C17.2 12.5 15.5 14.7 15.5 17.5 15.5 20.2 17.2 22.5 19.3 22.5 21.3 22.5 23 20.2 23 17.5 23 14.7 21.3 12.5 19.3 12.5L19.3 12.5ZM31.1 20.4C30.1 21.7 28.6 22.4 26.9 22.5 27.6 23.4 28 24.6 28 25.8L28 27.5 33 27.5 33 23.3C33 22 32.2 20.9 31.1 20.4L31.1 20.4ZM14.9 22.9C13.8 23.4 13 24.6 13 25.9L13 30 25.5 30 25.5 25.9C25.5 24.6 24.7 23.4 23.6 22.9 22.5 24.2 21 25 19.3 25 17.5 25 16 24.2 14.9 22.9L14.9 22.9Z" style="fill:none;stroke:#979797"/></svg>