<svg xmlns="http://www.w3.org/2000/svg" width="22" height="22" viewBox="13 11 22 22"><desc>  Created with Sketch.</desc><path d="M15.9 12C14.9 12 14 13 14 14.1L14 29.9C14 31 14.9 32 15.9 32L32.1 32C33.2 32 34 31 34 29.9L34 14.1C34 13 33.2 12 32.1 12L15.9 12 15.9 12ZM16.5 14.9L19 14.9 19 17.7 16.5 17.7 16.5 14.9 16.5 14.9ZM21.5 14.9L31.5 14.9 31.5 17.7 21.5 17.7 21.5 14.9 21.5 14.9ZM16.5 20.6L19 20.6 19 23.4 16.5 23.4 16.5 20.6 16.5 20.6ZM21.5 20.6L31.5 20.6 31.5 23.4 21.5 23.4 21.5 20.6 21.5 20.6ZM16.5 26.3L19 26.3 19 29.1 16.5 29.1 16.5 26.3 16.5 26.3ZM21.5 26.3L31.5 26.3 31.5 29.1 21.5 29.1 21.5 26.3 21.5 26.3Z" style="fill:none;stroke:#4A4A4A"/></svg>