<?xml version="1.0" encoding="UTF-8" standalone="no"?>
<svg width="18px" height="18px" viewBox="0 0 18 18" version="1.1" xmlns="http://www.w3.org/2000/svg" xmlns:xlink="http://www.w3.org/1999/xlink">
    <!-- Generator: Sketch 3.8.3 (29802) - http://www.bohemiancoding.com/sketch -->
    <title>Gear</title>
    <desc>Created with Sketch.</desc>
    <defs></defs>
    <g id="General-Welcome-Screen" stroke="none" stroke-width="1" fill="none" fill-rule="evenodd">
        <g id="Desktop---1200" transform="translate(-1164.000000, -70.000000)" stroke="#4A4A4A">
            <g id="Main-Content" transform="translate(200.000000, 64.000000)">
                <g id="Content-Heading" transform="translate(16.000000, 0.000000)">
                    <g id="Settings" transform="translate(831.000000, 7.000000)">
                        <path d="M134,9.5 L134,6.6 L132.2,6.3 C132.1,5.9 131.9,5.5 131.6,4.9 L132.7,3.4 L130.6,1.3 L129.1,2.4 C128.6,2.1 128.1,1.9 127.7,1.8 L127.5,0 L124.6,0 L124.3,1.8 C123.8,1.9 123.4,2.1 122.9,2.4 L121.4,1.3 L119.3,3.4 L120.3,4.9 C120,5.4 119.9,5.8 119.7,6.3 L118,6.5 L118,9.4 L119.8,9.7 C119.9,10.2 120.1,10.6 120.4,11.1 L119.4,12.6 L121.5,14.7 L123,13.7 C123.4,13.9 123.9,14.1 124.4,14.3 L124.7,16.1 L127.7,16.1 L128,14.3 C128.5,14.2 128.9,14 129.4,13.7 L130.9,14.8 L133,12.7 L131.9,11.2 C132.2,10.7 132.4,10.2 132.5,9.8 L134,9.5 L134,9.5 Z M126,11 C124.3,11 123,9.7 123,8 C123,6.3 124.3,5 126,5 C127.7,5 129,6.3 129,8 C129,9.7 127.7,11 126,11 L126,11 Z" id="Gear"></path>
                    </g>
                </g>
            </g>
        </g>
    </g>
</svg>