<svg xmlns="http://www.w3.org/2000/svg" width="22" height="22" viewBox="13 14 22 22"><desc>  Created with Sketch.</desc><path d="M14 15L14 20 34 20 34 15 14 15 14 15ZM14 22.5L14 34.8C14 34.9 14.1 35 14.3 35L33.7 35C33.9 35 34 34.9 34 34.8L34 22.5 14 22.5 14 22.5ZM16.9 25L19.7 25 19.7 27.5 16.9 27.5 16.9 25 16.9 25ZM25.4 25L25.4 27.5 22.6 27.5 22.6 25 25.4 25ZM28.3 25L31.1 25 31.1 27.5 28.3 27.5 28.3 25 28.3 25ZM16.9 30L19.7 30 19.7 32.5 16.9 32.5 16.9 30 16.9 30ZM22.6 30L25.4 30 25.4 32.5 22.6 32.5 22.6 30 22.6 30Z" style="fill:none;stroke:#979797"/></svg>