<?xml version="1.0" encoding="UTF-8" standalone="no"?>
<svg width="10px" height="17px" viewBox="0 0 10 17" version="1.1" xmlns="http://www.w3.org/2000/svg" xmlns:xlink="http://www.w3.org/1999/xlink">
    <!-- Generator: Sketch 3.8.3 (29802) - http://www.bohemiancoding.com/sketch -->
    <title>Shape</title>
    <desc>Created with Sketch.</desc>
    <defs></defs>
    <g id="Page-1" stroke="none" stroke-width="1" fill="none" fill-rule="evenodd">
        <path d="M4.96981891,0 C3.25955734,0 1.99195171,0.523138833 1.18712274,1.32796781 C0.382293763,2.13279678 0.100603622,3.138833 1.33226763e-15,3.90342052 L2.01207243,4.16498994 C2.09255533,3.66197183 2.25352113,3.15895372 2.63581489,2.77665996 C3.01810865,2.3943662 3.62173038,2.01207243 4.96981891,2.01207243 C6.29778672,2.01207243 7.0221328,2.33400402 7.42454728,2.69617706 C7.82696177,3.0583501 7.98792757,3.50100604 7.98792757,4.02414487 C7.98792757,5.69416499 7.30382294,6.15694165 6.29778672,7.04225352 C5.2917505,7.92756539 3.9637827,9.21529175 3.9637827,11.5694165 L3.9637827,12.0724346 L5.97585513,12.0724346 L5.97585513,11.5694165 C5.97585513,9.89939638 6.59959759,9.43661972 7.6056338,8.55130785 C8.61167002,7.66599598 10,6.37826962 10,4.02414487 C10,3.0583501 9.65794769,1.97183099 8.81287726,1.18712274 C7.94768612,0.402414487 6.65995976,2.23384914e-16 4.96981891,2.23384914e-16 L4.96981891,0 Z M3.9637827,14.084507 L3.9637827,16.0965795 L5.97585513,16.0965795 L5.97585513,14.084507 L3.9637827,14.084507 L3.9637827,14.084507 Z" id="Shape" fill="#FFFFFF"></path>
    </g>
</svg>